#!OML:ASF E:\acrobat2\Project_11_07_03\Capture day 1\Session 1\Acrobat.ASF
:FULLY-SPECIFIED
:DEGREES
65
root 8.50499 18.0846 -0.337934 2.89287 -58.3627 0.56251
lowerback -5.77512 1.93395 2.72073
upperback -0.706974 2.44364 -1.76188
thorax 2.69914 1.25114 -3.14745
lowerneck 0.430274 -1.14208 -1.24973
upperneck 6.31681 -1.66834 2.22974
head 1.92895 -0.82985 0.883895
rclavicle -2.82585e-014 -7.95139e-015
rhumerus -40.0026 -12.441 -79.536
rradius 26.3166
rwrist 3.85254
rhand -8.13474 -39.2475
rfingers 7.12502
rthumb 17.7792 -68.4547
lclavicle -2.82585e-014 -7.95139e-015
lhumerus -32.0853 -3.27838 83.0308
lradius 24.5609
lwrist 11.8888
lhand -2.74161 -13.6327
lfingers 7.12502
lthumb 22.9619 15.0198
rfemur 10.128 15.247 18.7993
rtibia -2.79883
rfoot -27.4603 -25.6085
rtoes 19.8614
lfemur 2.34003 -5.27737 -8.7376
ltibia -2.78736
lfoot -9.97457 5.45933
ltoes 32.5404
66
root 8.5006 18.083 -0.337557 2.70768 -58.4205 0.805003
lowerback -5.829 1.95841 2.62479
upperback -0.67616 2.48234 -1.80499
thorax 2.76193 1.27092 -3.13251
lowerneck 0.512572 -1.15823 -1.36708
upperneck 6.24377 -1.69825 2.42442
head 1.89562 -0.844225 0.965289
rclavicle -3.37872e-014 -7.95139e-015
rhumerus -39.8593 -12.8079 -79.51
rradius 26.3217
rwrist 4.11825
rhand -7.99224 -38.9654
rfingers 7.12502
rthumb 17.9163 -68.1602
lclavicle -3.37872e-014 -7.95139e-015
lhumerus -32.0652 -3.30968 83.1007
lradius 24.7596
lwrist 11.8507
lhand -2.9843 -14.0051
lfingers 7.12502
lthumb 22.729 14.6761
rfemur 10.1138 15.1037 18.588
rtibia -2.84527
rfoot -27.2477 -25.5736
rtoes 19.3983
lfemur 2.37864 -5.27059 -8.90351
ltibia -2.82986
lfoot -10.0501 5.4838
ltoes 33.0353
67
root 8.49629 18.0817 -0.335954 2.66377 -58.4466 0.899562
lowerback -5.89371 1.93629 2.58627
upperback -0.663725 2.45386 -1.80167
thorax 2.80707 1.25703 -3.10765
lowerneck 0.566554 -1.07792 -1.75655
upperneck 6.31739 -1.61583 2.90935
head 1.92009 -0.80298 1.18839
rclavicle -4.85563e-014 0
rhumerus -39.694 -13.0572 -79.4815
rradius 26.2384
rwrist 4.41712
rhand -8.14224 -38.5561
rfingers 7.12502
rthumb 17.772 -67.764
lclavicle -4.85563e-014 0
lhumerus -32.0554 -3.21327 83.1284
lradius 24.9387
lwrist 11.73
lhand -3.06397 -14.1141
lfingers 7.12502
lthumb 22.6526 14.5765
rfemur 10.0937 15.0659 18.512
rtibia -2.88247
rfoot -27.0571 -25.6269
rtoes 18.9199
lfemur 2.40984 -5.37606 -8.97853
ltibia -2.9351
lfoot -10.2062 5.55505
ltoes 33.8134
68
root 8.49252 18.0813 -0.335297 2.77165 -58.4192 0.855373
lowerback -5.95584 1.89104 2.60619
upperback -0.685522 2.38936 -1.7524
thorax 2.81317 1.22452 -3.07202
lowerneck 0.527341 -1.0514 -2.01613
upperneck 6.44251 -1.5914 3.10825
head 1.97334 -0.792446 1.29802
rclavicle -4.05738e-014 -8.34896e-015
rhumerus -39.6793 -12.4511 -79.784
rradius 26.5086
rwrist 3.76484
rhand -8.41703 -38.5186
rfingers 7.12502
rthumb 17.5075 -67.7502
lclavicle -4.05738e-014 -8.34896e-015
lhumerus -32.0443 -3.21247 83.2027
lradius 25.1079
lwrist 11.8167
lhand -2.83845 -13.7923
lfingers 7.12502
lthumb 22.869 14.8717
rfemur 10.0359 15.1166 18.5594
rtibia -2.90814
rfoot -27.0153 -25.7837
rtoes 18.7042
lfemur 2.34244 -5.50304 -8.94597
ltibia -2.9604
lfoot -10.3 5.61112
ltoes 33.4283
69
root 8.49013 18.081 -0.336821 2.92846 -58.3467 0.74274
lowerback -5.95 1.8675 2.63795
upperback -0.719871 2.35467 -1.71046
thorax 2.77132 1.20622 -3.05026
lowerneck 0.620746 -1.15154 -1.87241
upperneck 6.30858 -1.71186 2.88021
head 1.91131 -0.854572 1.19775
rclavicle 2.49102e-014 0
rhumerus -39.7223 -11.7434 -80.1911
rradius 26.8796
rwrist 2.83022
rhand -8.43295 -38.584
rfingers 7.12502
rthumb 17.4922 -67.817
lclavicle 2.49102e-014 0
lhumerus -32.0153 -3.39639 83.278
lradius 25.2106
lwrist 11.9981
lhand -2.63343 -13.6416
lfingers 7.12502
lthumb 23.0657 14.998
rfemur 9.99076 15.1728 18.6678
rtibia -2.92096
rfoot -27.0565 -25.979
rtoes 18.4465
lfemur 2.24515 -5.63174 -8.87244
ltibia -2.92528
lfoot -10.4072 5.63776
ltoes 33.4755
70
root 8.48586 18.0807 -0.337704 3.12597 -58.2729 0.545048
lowerback -5.88623 1.83939 2.66352
upperback -0.744227 2.31508 -1.64031
thorax 2.70559 1.18517 -2.99775
lowerneck 0.741197 -1.20652 -1.79696
upperneck 6.16861 -1.7799 2.8023
head 1.84433 -0.889418 1.15866
rclavicle -1.48809e-014 3.97569e-015
rhumerus -39.6486 -11.6515 -80.2912
rradius 26.9407
rwrist 2.6401
rhand -8.39735 -38.7945
rfingers 7.12502
rthumb 17.5265 -68.0245
lclavicle -1.48809e-014 3.97569e-015
lhumerus -32.0101 -3.51561 83.3622
lradius 25.2466
lwrist 12.1246
lhand -2.77921 -13.8185
lfingers 7.12502
lthumb 22.9259 14.8385
rfemur 10.0146 15.1851 18.8299
rtibia -2.97354
rfoot -27.0437 -26.174
rtoes 17.9703
lfemur 2.18345 -5.56644 -8.72799
ltibia -2.88399
lfoot -10.4098 5.53426
ltoes 34.6089
71
root 8.47855 18.082 -0.339155 3.12891 -58.1985 0.574955
lowerback -5.87062 1.80862 2.55548
upperback -0.729119 2.28041 -1.60175
thorax 2.70408 1.16677 -2.90022
lowerneck 0.461022 -1.21239 -1.7671
upperneck 6.38894 -1.79398 2.87033
head 1.96621 -0.891781 1.17491
rclavicle 1.39677e-014 -2.10712e-014
rhumerus -39.5059 -12.0109 -80.1728
rradius 26.8083
rwrist 2.96429
rhand -8.6045 -38.9112
rfingers 7.12502
rthumb 17.3271 -68.1588
lclavicle 1.39677e-014 -2.10712e-014
lhumerus -31.9619 -3.76997 83.5422
lradius 25.2338
lwrist 12.4612
lhand -3.06092 -13.9743
lfingers 7.12502
lthumb 22.6555 14.7159
rfemur 10.0356 15.2259 18.8584
rtibia -3.00262
rfoot -27.0699 -26.3652
rtoes 17.6493
lfemur 2.1132 -5.38333 -8.72589
ltibia -2.81029
lfoot -10.2404 5.40405
ltoes 34.6665
72
root 8.47169 18.0843 -0.339757 2.74559 -58.082 1.08181
lowerback -5.92895 1.8069 2.29786
upperback -0.708525 2.2959 -1.6994
thorax 2.75299 1.1729 -2.85294
lowerneck 0.0868954 -1.26145 -1.48784
upperneck 6.67908 -1.86448 2.80834
head 2.12423 -0.917957 1.10536
rclavicle 4.1223e-014 -2.96189e-014
rhumerus -39.4381 -12.3584 -80.1491
rradius 26.7259
rwrist 3.13392
rhand -8.74306 -38.9285
rfingers 7.12502
rthumb 17.1938 -68.1878
lclavicle 4.1223e-014 -2.96189e-014
lhumerus -31.8892 -4.20946 83.7091
lradius 25.2061
lwrist 12.7213
lhand -3.10961 -13.9638
lfingers 7.12502
lthumb 22.6088 14.7322
rfemur 10.0279 15.2161 18.5559
rtibia -3.03384
rfoot -27.0453 -26.5153
rtoes 17.3429
lfemur 2.03554 -5.35498 -9.08139
ltibia -2.76179
lfoot -10.0957 5.42956
ltoes 33.4436
73
root 8.4657 18.0842 -0.337058 2.17412 -57.9941 1.79346
lowerback -5.97994 1.80665 1.98565
upperback -0.724652 2.31802 -1.84472
thorax 2.76006 1.18063 -2.82454
lowerneck 0.0738458 -1.26071 -1.58585
upperneck 6.86508 -1.8885 3.13846
head 2.19501 -0.924834 1.22835
rclavicle 2.9841e-014 -1.61016e-014
rhumerus -39.4856 -12.3054 -80.2587
rradius 26.7147
rwrist 3.09612
rhand -8.53182 -38.944
rfingers 7.12502
rthumb 17.3971 -68.1855
lclavicle 2.9841e-014 -1.61016e-014
lhumerus -31.9047 -4.26252 83.6965
lradius 25.1956
lwrist 12.4633
lhand -3.03218 -13.9225
lfingers 7.12502
lthumb 22.6831 14.7644
rfemur 10.0588 15.1107 18.0771
rtibia -3.11439
rfoot -26.9684 -26.5639
rtoes 17.0207
lfemur 1.97975 -5.26881 -9.54976
ltibia -2.7179
lfoot -9.95362 5.39202
ltoes 32.6893
74
root 8.46089 18.0807 -0.334393 2.24605 -58.0253 1.70073
lowerback -5.98685 1.81507 2.04939
upperback -0.726562 2.3244 -1.81926
thorax 2.76384 1.18447 -2.83332
lowerneck 0.342389 -1.20923 -2.07529
upperneck 6.75533 -1.8533 3.81938
head 2.12883 -0.907857 1.53468
rclavicle -1.85118e-014 3.77691e-015
rhumerus -39.5225 -12.1535 -80.2954
rradius 26.6807
rwrist 3.15386
rhand -8.36946 -38.9506
rfingers 7.12502
rthumb 17.5533 -68.1781
lclavicle -1.85118e-014 3.77691e-015
lhumerus -31.915 -3.60123 83.5258
lradius 25.151
lwrist 11.8855
lhand -3.0205 -13.8929
lfingers 7.12502
lthumb 22.6943 14.7926
rfemur 10.0993 15.2169 18.1782
rtibia -3.15635
rfoot -27.0014 -26.6751
rtoes 17.0158
lfemur 1.9824 -5.1038 -9.42045
ltibia -2.68463
lfoot -9.8637 5.29326
ltoes 32.5594
75
root 8.45708 18.0761 -0.331546 2.82939 -58.1162 0.981023
lowerback -5.99661 1.85589 2.44469
upperback -0.671437 2.35019 -1.67466
thorax 2.83775 1.20325 -2.90258
lowerneck 0.492637 -1.17461 -2.34005
upperneck 6.47293 -1.81317 4.1374
head 2.01784 -0.890008 1.68425
rclavicle 2.93207e-015 -1.78906e-015
rhumerus -39.45 -12.0534 -80.3039
rradius 26.612
rwrist 3.10229
rhand -8.62331 -39.088
rfingers 7.12502
rthumb 17.309 -68.3372
lclavicle 2.93207e-015 -1.78906e-015
lhumerus -31.8086 -2.63413 83.3391
lradius 25.0467
lwrist 11.3504
lhand -2.96574 -13.8811
lfingers 7.12502
lthumb 22.7468 14.7979
rfemur 10.1136 15.4519 18.7198
rtibia -3.11695
rfoot -27.0414 -26.8639
rtoes 16.7782
lfemur 2.05991 -5.02658 -8.88255
ltibia -2.72179
lfoot -9.84324 5.30497
ltoes 32.1539
